<svg xmlns="http://www.w3.org/2000/svg" viewBox="0 0 63.596 21.044"><path d="M2.047 11.534c1.344 1.314 4.285 1.199 4.072 2.297-.125.667-.826.828-1.306.828-.552 0-1.756-.129-2.6-1.172L0 15.134c.416.645 1.536 1.795 4.203 1.795 2.704 0 4.626-1.562 4.98-3.432.173-.901-.074-1.515-.517-1.963zm9.369 0-1.807 9.51h3.157l1.021-5.363c.525.682 1.51 1.234 2.8 1.234 2.793 0 5.084-2.365 5.663-5.38h-3.057c-.313 1.64-1.439 2.734-2.87 2.734-1.52 0-2.141-1.167-1.85-2.735zm12.934 0-.99 5.203h3.134l.985-5.203zm6.109 0-.99 5.203h3.135l.984-5.203zm6.932 0-.99 5.203h3.14l.986-5.203zm12.144 0-.988 5.203h3.137l.988-5.203zm6.934 0-.985 5.203h3.135l.985-5.203zm-11.39 1.907c-.992 0-1.82.712-2.017 1.77-.25 1.307.454 1.735 1.354 1.735 1.057 0 1.843-.756 2.031-1.736.208-1.088-.265-1.77-1.369-1.77zM34.997 0c-1.281 0-2.02.74-2.182 1.604-.219 1.141.474 1.63 1.573 1.63 1.24 0 2.005-.76 2.167-1.63C36.763.511 36.065 0 34.997 0Zm19.084 0c-1.272 0-2.021.724-2.188 1.604-.213 1.136.47 1.63 1.574 1.63 1.244 0 2-.76 2.166-1.63C55.841.511 55.143 0 54.081 0ZM27.096 1.193l-1.765 9.296h3.136l1.76-9.296zm12.767 1.468-.5 2.626h-1.844l-.516 2.744h1.838l-.469 2.458h3.141l.464-2.458h2.015l.521-2.744h-2.016l.5-2.626zm19.077 0-.5 2.626h-1.839l-.52 2.744h1.839l-.464 2.458h3.135l.464-2.458h2.021l.52-2.744h-2.02l.5-2.626zM7.2 5.073c-2.088 0-4.385 1.208-4.765 3.214-.192 1.03.089 1.713.594 2.202h6.619c-1.307-1.296-4.38-1.125-4.145-2.358.109-.59.718-.803 1.364-.803.953 0 1.928.693 2.349 1.172l1.99-1.839C9.92 5.213 7.928 5.073 7.2 5.073zm12.453.02c-1.041 0-2.448.386-3.448 1.334l.162-1.14h-2.979l-.99 5.202h3.058v-.01c.292-1.52 1.317-2.739 2.89-2.739 1.402 0 2.146 1.088 1.834 2.739 0 .005 0 .005-.005.01h3.057v-.01c.604-3.162-.953-5.386-3.579-5.386zm12.776.194-.989 5.202h3.136l.984-5.202zm19.079 0-.99 5.202h3.135l.991-5.202z"/></svg>